<svg width="81" height="85" viewBox="0 0 81 85" fill="none" xmlns="http://www.w3.org/2000/svg">
<path d="M62.384 1.595C60.408 2.479 58 4.124 56 6.52V0H43V7.78799C39 2.73699 32.961 0.212006 26.177 0.212006C18.433 0.212006 12.251 3.124 7.53201 8.95C3.14401 14.444 0.975006 21.118 0.975006 28.972C0.975006 37.047 3.34599 43.777 8.06699 49.16C12.749 54.47 18.665 57.124 26.004 57.124C32.456 57.124 38 54.6 43 49.548V57.069C43 68.204 38.547 73.772 29.439 73.772C24.497 73.772 20.786 72.111 18.206 68.756C17.297 67.575 16.65 65.999 16.164 63.999H3.548C4.486 69.999 7.19401 75.443 11.674 79.181C16.314 83.066 22.223 84.994 29.4 84.999H29.475C37.971 84.989 44.647 82.186 49.506 76.593C52.086 73.679 53.82 70.195 54.705 66.139C54.999 64.663 55.407 62.959 55.573 61.023C55.739 59.088 55.999 56.848 55.999 54.304V23.65C56.999 16.07 60.438 12.268 66.952 12.268C69.462 12.268 71.945 13.117 74.581 14.812L80.896 3.418C76.903 1.28 73.142 0.210007 69.479 0.210007C66.721 0.211007 64.4 0.673001 62.384 1.595ZM39.883 40.816C37.117 44.277 33.356 46.007 28.6 46.007C23.843 46.007 20.118 44.296 17.427 40.871C14.956 37.742 13.721 33.729 13.721 28.833C13.721 23.863 14.956 19.814 17.427 16.684C20.155 13.188 23.879 11.439 28.6 11.439C33.024 11.439 36.656 13.04 39.495 16.243C42.297 19.372 43.699 23.552 43.699 28.778C43.699 33.676 42.427 37.688 39.883 40.816Z" fill="black"/>
</svg>
